<svg width="18" height="19" viewBox="0 0 18 19" fill="none" xmlns="http://www.w3.org/2000/svg">
<rect x="0.75" y="4.52808" width="12.5" height="13.5" stroke="#DAB2FF" stroke-width="1.5"/>
<path d="M7.46915 9.89671C7.19981 10.2114 7.21914 10.7037 7.51232 10.9963C7.80551 11.2889 8.26152 11.271 8.53085 10.9563L8 10.4265L7.46915 9.89671ZM16.9781 0.749757C16.9612 0.320334 16.6251 -0.0151201 16.2273 0.000498975L9.74543 0.255026C9.34767 0.270645 9.03889 0.631423 9.05575 1.06085C9.07262 1.49027 9.40873 1.82572 9.80649 1.8101L15.5682 1.58386L15.8124 7.80417C15.8293 8.23359 16.1654 8.56905 16.5632 8.55343C16.9609 8.53781 17.2697 8.17703 17.2528 7.74761L16.9781 0.749757ZM8 10.4265L8.53085 10.9563L16.7887 1.30784L16.2578 0.778038L15.727 0.248232L7.46915 9.89671L8 10.4265Z" fill="#DAB2FF"/>
</svg>
