<svg width="35" height="35" viewBox="0 0 35 35" fill="none" xmlns="http://www.w3.org/2000/svg">
<circle cx="17.5" cy="17.5" r="17.5" fill="#DAB2FF"/>
<path d="M20.2221 17.9387C23.2013 17.9387 25.6166 20.354 25.6166 23.3332C25.6166 26.3125 23.2014 28.7278 20.2221 28.7278C17.2429 28.7277 14.8276 26.3125 14.8276 23.3332C14.8276 20.354 17.2429 17.9387 20.2221 17.9387Z" fill="#B684B1" stroke="black" stroke-width="0.1"/>
<circle cx="10.8889" cy="17.1111" r="5.39444" fill="#B684B1" stroke="black" stroke-width="0.1"/>
<path d="M14.7777 17.2107C17.7293 17.2107 20.1223 19.6038 20.1224 22.5555C20.1224 25.5071 17.7293 27.9002 14.7777 27.9002C11.8261 27.9001 9.43294 25.5071 9.43294 22.5555C9.433 19.6039 11.8261 17.2108 14.7777 17.2107Z" fill="white" stroke="black" stroke-width="0.2"/>
<path d="M14.7777 7.09961C17.7293 7.09961 20.1223 9.49273 20.1224 12.4443C20.1224 15.396 17.7293 17.7891 14.7777 17.7891C11.8261 17.789 9.43294 15.396 9.43294 12.4443C9.433 9.49277 11.8261 7.09967 14.7777 7.09961Z" fill="white" stroke="black" stroke-width="0.2"/>
<circle cx="21.7778" cy="12.4444" r="5.39444" fill="#B684B1" stroke="black" stroke-width="0.1"/>
<path d="M23.3332 14.0996C26.2848 14.0996 28.6779 16.4927 28.6779 19.4443C28.6779 22.396 26.2849 24.7891 23.3332 24.7891C20.3816 24.789 17.9885 22.396 17.9885 19.4443C17.9886 16.4928 20.3817 14.0997 23.3332 14.0996Z" fill="white" stroke="black" stroke-width="0.2"/>
<circle cx="17.8889" cy="17.8889" r="5.34444" fill="#B684B1" stroke="black" stroke-width="0.2"/>
</svg>
